<?xml version="1.0" standalone="no"?>
<!DOCTYPE svg PUBLIC "-//W3C//DTD SVG 20010904//EN"
 "http://www.w3.org/TR/2001/REC-SVG-20010904/DTD/svg10.dtd">
<svg version="1.0" xmlns="http://www.w3.org/2000/svg"
 width="250.000000pt" height="250.000000pt" viewBox="0 0 250.000000 250.000000"
 preserveAspectRatio="xMidYMid meet">
<metadata>
Created by potrace 1.14, written by Peter Selinger 2001-2017
</metadata>
<g transform="translate(0.000000,250.000000) scale(0.100000,-0.100000)"
fill="#000000" stroke="none">
<path d="M0 1250 l0 -1250 784 0 784 0 5 30 c6 28 8 29 32 18 23 -10 29 -20
26 -40 0 -5 61 -7 136 -7 76 1 123 4 105 8 -48 9 -39 26 13 26 36 0 45 -3 45
-17 0 -21 30 -24 48 -6 9 9 12 9 12 0 0 -9 63 -12 255 -12 l255 0 0 825 c0
454 -4 825 -9 825 -4 0 -7 -18 -7 -40 1 -42 -3 -47 -22 -28 -7 7 -13 9 -13 5
-1 -4 -3 -11 -4 -17 -1 -5 -3 -14 -4 -20 0 -5 -9 -14 -20 -19 -16 -9 -18 -7
-15 16 2 19 0 23 -9 14 -12 -12 -38 -15 -36 -3 5 27 -3 52 -16 52 -11 0 -14 9
-10 35 2 19 0 35 -4 35 -12 0 -21 -26 -16 -49 2 -14 -1 -18 -10 -14 -8 2 -14
8 -13 11 2 18 -3 32 -11 32 -4 0 -8 -10 -7 -22 2 -27 -19 -52 -34 -43 -8 5 -7
12 2 23 11 13 11 14 -1 7 -11 -6 -13 -4 -8 8 3 9 -1 18 -10 21 -11 4 -14 2
-10 -9 4 -8 2 -17 -3 -20 -5 -3 -6 -13 -3 -22 4 -11 3 -14 -5 -9 -7 4 -12 2
-12 -6 0 -9 -3 -9 -10 2 -5 8 -18 16 -29 16 -17 1 -19 -2 -10 -19 8 -14 8 -18
0 -13 -6 4 -11 2 -11 -3 0 -6 -12 -11 -26 -11 l-26 0 23 21 24 20 -27 -5 c-37
-8 -35 0 5 25 22 14 25 19 10 14 -25 -7 -30 4 -10 24 10 11 8 13 -10 8 -13 -3
-24 1 -27 9 -3 8 0 14 6 14 7 0 6 5 -2 15 -6 8 -9 19 -6 24 4 5 2 12 -4 16 -6
3 -13 -1 -16 -9 -3 -9 -10 -13 -15 -10 -5 3 -7 10 -4 15 4 5 -2 6 -12 2 -16
-6 -16 -5 -5 10 18 22 6 57 -19 57 -11 0 -17 -4 -14 -10 3 -5 0 -10 -8 -10
-18 0 -29 -24 -20 -47 5 -12 3 -14 -7 -8 -9 5 -11 4 -6 -4 4 -6 3 -18 -4 -26
-7 -9 -8 -15 0 -20 18 -11 12 -27 -7 -16 -11 6 -26 5 -42 -1 l-26 -9 25 27 25
27 -24 -13 c-22 -11 -23 -11 -18 9 3 14 1 19 -6 14 -6 -4 -8 0 -4 10 3 10 2
17 -2 17 -10 0 -9 26 2 36 4 4 7 12 7 18 0 6 -5 4 -10 -4 -7 -12 -12 -12 -22
-2 -10 10 -10 17 0 32 8 14 9 20 1 20 -6 0 -8 7 -5 16 3 8 2 12 -4 9 -6 -3
-10 2 -10 13 0 26 -11 34 -27 21 -10 -9 -13 -8 -14 2 -2 50 -18 85 -26 62 -3
-7 -12 -13 -21 -13 -12 0 -13 3 -5 11 18 18 -6 62 -29 56 -10 -3 -16 -1 -12 4
3 5 -5 9 -17 9 -16 0 -20 5 -16 19 3 12 -1 22 -10 25 -8 3 -11 10 -8 16 3 5
-1 10 -9 10 -13 0 -14 -4 -5 -18 9 -14 3 -52 -25 -173 -20 -85 -36 -160 -36
-167 0 -6 17 -14 38 -17 135 -22 265 -79 332 -147 23 -24 56 -72 73 -108 27
-55 32 -78 35 -156 13 -343 -250 -603 -623 -616 l-78 -3 -13 -55 c-6 -30 -15
-76 -18 -103 l-7 -47 -150 0 c-138 0 -150 1 -146 18 17 58 38 174 33 179 -3 3
-25 7 -48 10 -189 18 -317 101 -385 249 -21 46 -27 78 -31 157 -12 253 87 411
331 528 86 41 256 89 319 89 20 0 39 4 42 9 9 14 47 201 51 249 l3 42 -38 0
c-21 0 -42 -5 -45 -10 -4 -6 -11 -7 -17 -4 -7 5 -9 -2 -4 -22 6 -27 5 -28 -9
-10 -8 11 -15 23 -15 27 0 12 -101 -16 -148 -40 -65 -33 -84 -71 -79 -155 l5
-69 -54 6 c-63 6 -115 35 -132 72 -37 80 6 163 110 214 60 29 197 70 242 72
14 0 9 4 -14 11 -19 6 -29 13 -22 15 17 6 15 23 -3 23 -17 0 -20 16 -5 25 17
10 11 25 -6 18 -14 -5 -16 -2 -10 20 4 16 2 27 -3 27 -6 0 -7 8 -4 17 5 12 2
15 -9 11 -11 -5 -15 1 -16 24 -1 37 -12 51 -13 17 -1 -13 -1 -28 0 -33 1 -5
-5 -6 -13 -3 -8 3 -17 0 -19 -7 -4 -10 1 -12 16 -9 17 5 20 3 10 -7 -20 -21
-41 -5 -37 29 3 23 -1 31 -18 37 -20 6 -20 8 -5 19 23 16 21 24 -3 18 -16 -4
-19 -2 -14 11 4 11 1 16 -10 16 -21 0 -20 16 2 29 16 10 16 10 0 11 -10 0 -18
5 -18 10 0 6 4 10 9 10 5 0 12 8 16 18 5 14 4 15 -6 5 -7 -7 -24 -13 -37 -13
l-24 0 23 20 c24 19 23 19 -433 20 l-458 0 0 -1250z m1791 637 c-10 -9 -11 -8
-5 6 3 10 9 15 12 12 3 -3 0 -11 -7 -18z m199 -127 c0 -5 -5 -10 -11 -10 -5 0
-7 5 -4 10 3 6 8 10 11 10 2 0 4 -4 4 -10z m-78 -115 c6 -27 1 -30 -21 -16
-12 8 -12 12 -2 25 17 21 18 20 23 -9z m222 -111 c3 -8 2 -12 -4 -9 -6 3 -10
10 -10 16 0 14 7 11 14 -7z m76 0 c0 -2 -7 -4 -15 -4 -8 0 -15 4 -15 10 0 5 7
7 15 4 8 -4 15 -8 15 -10z m270 10 c0 -8 -19 -13 -24 -6 -3 5 1 9 9 9 8 0 15
-2 15 -3z m-640 -1298 c0 -2 -7 -7 -16 -10 -8 -3 -12 -2 -9 4 6 10 25 14 25 6z
m485 -6 c3 -6 -1 -7 -9 -4 -18 7 -21 14 -7 14 6 0 13 -4 16 -10z m-835 -4 c0
-2 -11 -6 -25 -8 -13 -3 -22 -1 -19 3 5 9 44 13 44 5z m840 -26 c0 -5 -2 -10
-4 -10 -3 0 -8 5 -11 10 -3 6 -1 10 4 10 6 0 11 -4 11 -10z m-455 -50 c-3 -5
-12 -10 -18 -10 -7 0 -6 4 3 10 19 12 23 12 15 0z m352 -19 c-7 -20 -16 -27
-31 -26 -12 1 -29 3 -38 4 -36 2 -17 21 21 21 25 0 41 5 45 15 3 8 7 15 10 15
2 0 -1 -13 -7 -29z m-617 9 c0 -5 -5 -10 -11 -10 -5 0 -7 5 -4 10 3 6 8 10 11
10 2 0 4 -4 4 -10z m770 -14 c0 -3 -4 -8 -10 -11 -5 -3 -10 -1 -10 4 0 6 5 11
10 11 6 0 10 -2 10 -4z m-545 -25 c3 -5 2 -12 -3 -15 -5 -3 -9 1 -9 9 0 17 3
19 12 6z m-375 -31 c0 -5 -5 -10 -11 -10 -5 0 -7 5 -4 10 3 6 8 10 11 10 2 0
4 -4 4 -10z m657 -30 c-6 -17 -15 -30 -20 -30 -5 0 -7 7 -4 15 4 8 1 17 -5 21
-7 5 -5 11 7 20 26 19 35 8 22 -26z m103 30 c0 -5 -5 -10 -11 -10 -5 0 -7 5
-4 10 3 6 8 10 11 10 2 0 4 -4 4 -10z m-840 -10 c0 -5 -4 -10 -10 -10 -5 0
-10 5 -10 10 0 6 5 10 10 10 6 0 10 -4 10 -10z m-20 -50 c0 -5 -4 -10 -10 -10
-5 0 -10 5 -10 10 0 6 5 10 10 10 6 0 10 -4 10 -10z"/>
<path d="M1476 2312 c-4 -6 -12 -10 -19 -8 -7 1 -9 1 -4 -1 4 -3 7 -11 7 -19
0 -9 -5 -12 -12 -8 -10 6 -10 4 0 -7 18 -19 15 -31 -6 -25 -15 5 -18 1 -16
-26 1 -18 -3 -40 -9 -48 -6 -8 -7 -12 -3 -8 5 4 15 3 23 -3 17 -15 18 -35 1
-22 -18 13 -50 10 -55 -4 -3 -7 0 -13 7 -13 6 0 8 5 5 10 -9 14 2 12 28 -4 29
-19 147 -27 140 -10 -3 7 -11 10 -19 7 -8 -3 -14 0 -14 6 0 6 5 11 10 11 6 0
10 8 10 17 0 13 -3 14 -12 5 -7 -7 -17 -12 -22 -12 -6 1 -1 9 12 20 21 17 21
19 4 24 -14 5 -18 13 -14 33 4 20 2 24 -8 18 -9 -6 -12 -4 -8 6 7 19 -17 75
-26 61z"/>
<path d="M1250 2175 c0 -8 -5 -15 -10 -15 -6 0 -5 -8 2 -20 15 -24 34 -26 42
-4 4 10 2 13 -6 8 -7 -5 -9 0 -6 14 4 13 0 23 -8 26 -8 3 -14 -1 -14 -9z"/>
<path d="M2150 1630 c0 -5 5 -10 11 -10 5 0 7 5 4 10 -3 6 -8 10 -11 10 -2 0
-4 -4 -4 -10z"/>
<path d="M1123 1606 c-171 -64 -263 -198 -283 -414 -18 -199 50 -349 174 -383
21 -6 39 -9 41 -7 2 2 35 154 74 338 39 184 78 365 86 401 8 37 15 72 15 78 0
17 -39 12 -107 -13z"/>
<path d="M1496 1503 c-15 -71 -45 -211 -66 -313 -22 -102 -48 -227 -60 -279
-11 -52 -20 -99 -20 -104 0 -6 20 -7 49 -4 198 23 362 252 364 507 1 156 -41
242 -145 294 -90 45 -90 45 -122 -101z"/>
</g>
</svg>
